<svg xmlns="http://www.w3.org/2000/svg" width="24" height="24" fill="white" viewBox="0 0 24 24">
  <path d="M16.5 12c0-.71-.15-1.39-.42-2h.66l2.46-2.46-1.42-1.42-1.8 1.8c-1.23-1.16-2.92-1.92-4.83-1.92-2.11 0-3.98 1-5.07 2.53L7 8.83V4H5v12h2v-3.17l7.83 7.83 1.41-1.41L16.5 12zm-5.94 5.94L6 13.41V10.59l4.56-4.56c.49-.49 1.18-.78 1.89-.78.71 0 1.4.29 1.89.78l2.45 2.45c.49.49.78 1.18.78 1.89s-.29 1.4-.78 1.89l-4.83 4.83c-.47.47-1.1.73-1.76.78-.03 0-.05.01-.08.01-.65 0-1.28-.25-1.76-.72zM12 0C5.373 0 0 5.373 0 12s5.373 12 12 12 12-5.373 12-12S18.627 0 12 0zm0 22C6.477 22 2 17.523 2 12S6.477 2 12 2s10 4.477 10 10-4.477 10-10 10z"/>
</svg>